<svg width="1034" height="278" viewBox="0 0 1034 278" fill="none" xmlns="http://www.w3.org/2000/svg">
<g clip-path="url(#clip0_3784_11813)">
<path d="M140.324 277.07C217.824 277.07 280.649 215.046 280.649 138.535C280.649 62.0243 217.824 0 140.324 0C62.8254 0 0 62.0243 0 138.535C0 215.046 62.8254 277.07 140.324 277.07Z" fill="#069E08"/>
<path d="M147.441 115.359V249.626L217.439 115.359H147.441Z" fill="white"/>
<path d="M133.206 161.725V27.4585L63.2083 161.725H133.206Z" fill="white"/>
<path d="M362.327 230.13C358.357 224.139 354.578 217.936 350.81 212.145C370.709 200.364 377.206 190.641 377.206 172.656V68.855H353.971V49.0107H403.603V167.489C403.59 197.668 395.006 214.417 362.327 230.13Z" fill="black"/>
<path d="M570.147 159.213C570.147 169.198 577.48 170.371 582.296 170.371C587.113 170.371 594.129 168.723 599.363 167.276V185.884C590.97 188.713 582.15 190.11 573.283 190.015C560.299 190.015 545.47 185.26 545.47 163.145V108.579H531.792V89.7334H545.407V61.8267H570.147V89.5337H601.246V108.579H570.147V159.213Z" fill="black"/>
<path d="M621.624 239.428V89.3979H645.289V98.4214C654.707 91.1826 665.175 86.8394 677.956 86.8394C700.155 86.8394 717.752 102.141 717.752 135.227C717.752 168.101 698.486 189.817 666.641 189.817C659.809 189.741 653.002 188.98 646.326 187.546V239.428H621.624ZM671.281 106.896C663.948 106.896 654.947 110.203 646.351 117.654V168.725C652.415 169.964 658.591 170.587 664.783 170.584C682.178 170.584 692.228 159.626 692.228 137.086C692.203 115.994 685.073 106.896 671.281 106.896Z" fill="black"/>
<path d="M814.717 187.546H791.683V176.787H791.051C782.885 183.028 773.049 189.405 758.385 189.405C745.401 189.405 731.571 180.095 731.571 161.486C731.571 136.4 753.353 131.682 768.435 129.611L790.014 126.715V123.857C790.014 110.627 784.566 106.284 772 106.284C760.89 106.727 749.928 108.962 739.548 112.899L737.45 93.2544C749.599 89.1847 762.319 87.0201 775.148 86.8394C799.243 86.8394 814.729 96.3496 814.729 124.681L814.717 187.546ZM790.014 141.817L769.699 144.912C763.618 145.736 757.133 149.355 757.133 158.453C757.133 166.466 761.735 170.934 768.435 170.934C775.552 170.934 783.517 166.591 790.014 162.048V141.817Z" fill="black"/>
<path d="M916.406 184.438C906.293 187.745 897.241 190.017 885.509 190.017C848.443 190.017 833.779 169.137 833.779 138.746C833.779 106.696 854.094 86.8394 886.976 86.8394C899.339 86.8394 906.773 88.9111 915.142 91.5945V112.325C908.024 109.641 897.443 106.746 887.393 106.746C872.324 106.746 859.581 114.596 859.581 137.548C859.581 162.772 872.362 170.223 888.657 170.223C896.407 170.223 905.092 168.563 916.406 164.219V184.438Z" fill="black"/>
<path d="M963.105 131.711C965.204 129.439 966.898 126.956 997.871 89.5385H1029.92L989.704 136.041L1033.68 187.537H1001.44L963.105 141.034V187.562H938.391V49.0264H963.105V131.711Z" fill="black"/>
<path d="M513.258 184.438C501.409 188.183 489.038 190.066 476.597 190.017C444.992 190.017 425.536 174.516 425.536 137.91C425.536 111.239 442.084 86.8394 473.916 86.8394C505.521 86.8394 516.646 108.556 516.646 129.274C516.669 134.108 516.386 138.939 515.799 143.739H452.122C452.754 165.243 465.08 170.21 483.499 170.21C493.612 170.21 502.904 167.951 513.283 164.194L513.258 184.438ZM490.844 127.576C490.844 115.582 486.862 105.248 473.664 105.248C461.313 105.248 453.778 113.985 452.312 127.576H490.844Z" fill="black"/>
</g>
<defs>
<clipPath id="clip0_3784_11813">
<rect width="1033.69" height="277.07" fill="white"/>
</clipPath>
</defs>
</svg>
