<svg width="2480" height="2480" viewBox="0 0 2480 2480" fill="none" xmlns="http://www.w3.org/2000/svg">
<path d="M951.983 1756.28V1718.8H971.278L951.983 1756.28ZM948.065 1731.73H928.769L948.065 1694.25V1731.73ZM950.024 1686.6C928.659 1686.6 911.359 1703.9 911.359 1725.27C911.359 1746.63 928.659 1763.93 950.024 1763.93C971.389 1763.93 988.688 1746.63 988.688 1725.27C988.688 1703.9 971.389 1686.6 950.024 1686.6Z" stroke="#2FB41F" stroke-width="0.241824" stroke-miterlimit="10"/>
<path d="M960.544 1767.88V1702.09H994.403L960.544 1767.88ZM953.669 1724.82H919.809L953.669 1659.03V1724.82ZM957.106 1645.57C919.625 1645.57 889.203 1675.95 889.203 1713.47C889.203 1750.99 919.588 1781.38 957.106 1781.38C994.625 1781.38 1025.01 1750.99 1025.01 1713.47C1025.01 1675.95 994.625 1645.57 957.106 1645.57Z" stroke="#2FB41F" stroke-width="0.349302" stroke-miterlimit="10"/>
<path d="M969.089 1779.46V1685.34H1017.55L969.089 1779.46ZM959.22 1717.84H910.76L959.22 1623.73V1717.84ZM964.136 1604.47C910.501 1604.47 867.031 1647.94 867.031 1701.57C867.031 1755.21 910.501 1798.68 964.136 1798.68C1017.77 1798.68 1061.24 1755.21 1061.24 1701.57C1061.24 1647.94 1017.77 1604.47 964.136 1604.47Z" stroke="#2FB41F" stroke-width="0.456779" stroke-miterlimit="10"/>
<path d="M977.666 1791.06V1668.6H1040.69L977.666 1791.06ZM964.839 1710.89H901.815L964.839 1588.42V1710.89ZM971.234 1563.4C901.446 1563.4 844.891 1619.95 844.891 1689.74C844.891 1759.53 901.446 1816.09 971.234 1816.09C1041.02 1816.09 1097.58 1759.53 1097.58 1689.74C1097.58 1619.95 1041.02 1563.4 971.234 1563.4Z" stroke="#2FB41F" stroke-width="0.564257" stroke-miterlimit="10"/>
<path d="M986.206 1802.67V1651.89H1063.79L986.206 1802.67ZM970.422 1703.97H892.834L970.422 1553.2V1703.97ZM978.295 1522.37C892.391 1522.37 822.75 1592.01 822.75 1677.91C822.75 1763.82 892.391 1833.46 978.295 1833.46C1064.2 1833.46 1133.84 1763.82 1133.84 1677.91C1133.84 1592.01 1064.2 1522.37 978.295 1522.37Z" stroke="#2FB41F" stroke-width="0.671734" stroke-miterlimit="10"/>
<path d="M994.776 1814.28V1635.18H1086.97L994.776 1814.28ZM976.036 1697.03H883.847L976.036 1517.93V1697.03ZM985.424 1481.3C883.366 1481.3 800.641 1564.03 800.641 1666.09C800.641 1768.14 883.366 1850.87 985.424 1850.87C1087.48 1850.87 1170.21 1768.14 1170.21 1666.09C1170.21 1564.03 1087.48 1481.3 985.424 1481.3Z" stroke="#2FB41F" stroke-width="0.779212" stroke-miterlimit="10"/>
<path d="M1003.32 1825.88V1618.48H1110.07L1003.32 1825.88ZM981.624 1690.08H874.871L981.624 1482.67V1690.08ZM992.491 1440.23C874.28 1440.23 778.469 1536.05 778.469 1654.26C778.469 1772.47 874.28 1868.28 992.491 1868.28C1110.7 1868.28 1206.51 1772.47 1206.51 1654.26C1206.51 1536.05 1110.7 1440.23 992.491 1440.23Z" stroke="#2FB41F" stroke-width="0.886689" stroke-miterlimit="10"/>
<path d="M1011.85 1837.45V1601.69H1133.17L1011.85 1837.45V1837.45ZM987.159 1683.13H865.843L987.159 1447.37V1683.13V1683.13ZM999.505 1399.17C865.178 1399.17 756.281 1508.06 756.281 1642.39C756.281 1776.72 865.178 1885.62 999.505 1885.62C1133.83 1885.62 1242.73 1776.72 1242.73 1642.39C1242.73 1508.06 1133.83 1399.17 999.505 1399.17Z" stroke="#2FB41F" stroke-width="0.994167" stroke-miterlimit="10"/>
<path d="M1020.43 1849.06V1584.99H1156.35L1020.43 1849.06ZM992.779 1676.18H856.862L992.779 1412.11V1676.18ZM1006.6 1358.1C856.122 1358.1 734.141 1480.08 734.141 1630.56C734.141 1781.05 856.122 1903.03 1006.6 1903.03C1157.08 1903.03 1279.07 1781.05 1279.07 1630.56C1279.07 1480.08 1157.08 1358.1 1006.6 1358.1V1358.1Z" stroke="#2FB41F" stroke-width="1.10164" stroke-miterlimit="10"/>
<path d="M1028.97 1860.67V1568.28H1179.45L1028.97 1860.67ZM998.361 1669.27H847.88L998.361 1376.88V1669.27ZM1013.66 1317.07C847.067 1317.07 712 1452.14 712 1618.74C712 1785.33 847.067 1920.4 1013.66 1920.4C1180.26 1920.4 1315.33 1785.33 1315.33 1618.74C1315.33 1452.14 1180.26 1317.07 1013.66 1317.07Z" stroke="#2FB41F" stroke-width="1.20912" stroke-miterlimit="10"/>
<path d="M1037.54 1872.27V1551.57H1202.63L1037.54 1872.27V1872.27ZM1003.98 1662.32H838.899L1003.98 1341.62V1662.32ZM1020.76 1276.04C838.012 1276.04 689.859 1424.19 689.859 1606.94C689.859 1789.7 838.012 1937.85 1020.76 1937.85C1203.51 1937.85 1351.67 1789.7 1351.67 1606.94C1351.67 1424.19 1203.51 1276.04 1020.76 1276.04V1276.04Z" stroke="#2FB41F" stroke-width="1.3166" stroke-miterlimit="10"/>
<path d="M1046.09 1883.84V1534.83H1225.74L1046.09 1883.84ZM1009.57 1655.33H829.923L1009.57 1306.31V1655.33ZM1027.83 1234.94C828.925 1234.94 667.688 1396.17 667.688 1595.08C667.688 1793.98 828.925 1955.22 1027.83 1955.22C1226.73 1955.22 1387.97 1793.98 1387.97 1595.08C1387.97 1396.17 1226.73 1234.94 1027.83 1234.94V1234.94Z" stroke="#2FB41F" stroke-width="1.42408" stroke-miterlimit="10"/>
<path d="M1054.67 1895.45V1518.08H1248.88L1054.67 1895.45ZM1015.15 1648.42H820.942L1015.15 1271.05V1648.42V1648.42ZM1034.89 1193.91C819.87 1193.91 645.547 1368.23 645.547 1583.25C645.547 1798.27 819.87 1972.59 1034.89 1972.59C1249.91 1972.59 1424.23 1798.27 1424.23 1583.25C1424.23 1368.23 1249.91 1193.91 1034.89 1193.91Z" stroke="#2FB41F" stroke-width="1.53155" stroke-miterlimit="10"/>
<path d="M1063.2 1907.05V1501.37H1272.01L1063.2 1907.05ZM1020.72 1641.47H811.913L1020.72 1235.79V1641.47ZM1041.94 1152.84C810.767 1152.84 623.359 1340.25 623.359 1571.42C623.359 1802.59 810.767 1990 1041.94 1990C1273.12 1990 1460.52 1802.59 1460.52 1571.42C1460.52 1340.25 1273.12 1152.84 1041.94 1152.84V1152.84Z" stroke="#2FB41F" stroke-width="1.63903" stroke-miterlimit="10"/>
<path d="M1071.74 1918.66V1484.67H1295.11L1071.74 1918.66ZM1026.31 1634.52H802.932L1026.31 1200.52V1634.52ZM1049 1111.77C801.675 1111.77 601.219 1312.27 601.219 1559.56C601.219 1806.85 801.712 2007.34 1049 2007.34C1296.29 2007.34 1496.79 1806.85 1496.79 1559.56C1496.79 1312.27 1296.29 1111.77 1049 1111.77Z" stroke="#2FB41F" stroke-width="1.74651" stroke-miterlimit="10"/>
<path d="M1080.32 1930.23V1467.92H1318.26L1080.32 1930.23ZM1031.94 1627.57H793.998L1031.94 1165.26V1627.57ZM1056.15 1070.7C792.704 1070.7 579.125 1284.28 579.125 1547.73C579.125 1811.17 792.704 2024.75 1056.15 2024.75C1319.59 2024.75 1533.17 1811.17 1533.17 1547.73C1533.17 1284.28 1319.59 1070.7 1056.15 1070.7Z" stroke="#2FB41F" stroke-width="1.85399" stroke-miterlimit="10"/>
<path d="M1088.85 1941.84V1451.18H1341.39L1088.85 1941.84ZM1037.51 1620.62H784.969L1037.51 1129.96V1620.62ZM1063.2 1029.64C783.602 1029.64 556.938 1256.3 556.938 1535.9C556.938 1815.5 783.602 2042.16 1063.2 2042.16C1342.8 2042.16 1569.46 1815.5 1569.46 1535.9C1569.46 1256.3 1342.8 1029.64 1063.2 1029.64Z" stroke="#2FB41F" stroke-width="1.96146" stroke-miterlimit="10"/>
<path d="M1097.42 1953.45V1434.47H1364.53L1097.42 1953.45ZM1043.12 1613.71H776.019L1043.12 1094.73V1613.71ZM1070.29 988.607C774.578 988.607 534.828 1228.36 534.828 1524.07C534.828 1819.78 774.578 2059.53 1070.29 2059.53C1366 2059.53 1605.75 1819.78 1605.75 1524.07C1605.75 1228.36 1366 988.607 1070.29 988.607Z" stroke="#2FB41F" stroke-width="2.06894" stroke-miterlimit="10"/>
<path d="M1105.97 1965.05V1417.76H1387.64L1105.97 1965.05ZM1048.68 1606.76H767.012L1048.68 1059.47V1606.76ZM1077.33 947.539C765.46 947.539 512.625 1200.37 512.625 1512.24C512.625 1824.11 765.46 2076.94 1077.33 2076.94C1389.19 2076.94 1642.03 1824.11 1642.03 1512.24C1642.03 1200.37 1389.19 947.539 1077.33 947.539V947.539Z" stroke="#2FB41F" stroke-width="2.14955" stroke-miterlimit="10"/>
<path d="M1114.54 1976.62V1401.02H1410.81L1114.54 1976.62ZM1054.29 1599.77H758.025L1054.29 1024.17V1599.77V1599.77ZM1084.42 906.436C756.399 906.436 490.516 1172.36 490.516 1500.34C490.516 1828.32 756.436 2094.24 1084.42 2094.24C1412.4 2094.24 1678.32 1828.32 1678.32 1500.34C1678.32 1172.36 1412.4 906.436 1084.42 906.436V906.436Z" stroke="#2FB41F" stroke-width="2.25703" stroke-miterlimit="10"/>
<path d="M1123.09 1988.23V1384.31H1433.92L1123.09 1988.23V1988.23ZM1059.88 1592.86H749.05L1059.88 988.941V1592.86ZM1091.49 865.406C747.349 865.406 468.344 1144.41 468.344 1488.55C468.344 1832.68 747.349 2111.69 1091.49 2111.69C1435.62 2111.69 1714.63 1832.68 1714.63 1488.55C1714.63 1144.41 1435.62 865.406 1091.49 865.406V865.406Z" stroke="#2FB41F" stroke-width="2.3645" stroke-miterlimit="10"/>
<path d="M1131.61 1999.84V1367.56H1457.05L1131.61 1999.84ZM1065.45 1585.91H740.016L1065.45 953.639V1585.91ZM1098.53 824.338C738.241 824.338 446.188 1116.39 446.188 1476.68C446.188 1836.97 738.241 2129.03 1098.53 2129.03C1458.82 2129.03 1750.87 1836.97 1750.87 1476.68C1750.87 1116.39 1458.82 824.338 1098.53 824.338V824.338Z" stroke="#2FB41F" stroke-width="2.47198" stroke-miterlimit="10"/>
<path d="M1140.19 2011.44V1350.86H1480.19L1140.19 2011.44ZM1071.07 1578.96H731.071L1071.07 918.376V1578.96ZM1105.63 783.271C729.186 783.271 424.047 1088.41 424.047 1464.85C424.047 1841.3 729.186 2146.44 1105.63 2146.44C1482.07 2146.44 1787.21 1841.3 1787.21 1464.85C1787.21 1088.41 1482.07 783.271 1105.63 783.271Z" stroke="#2FB41F" stroke-width="2.57946" stroke-miterlimit="10"/>
<path d="M1148.74 2023.05V1334.15H1503.3L1148.74 2023.05ZM1076.62 1572.05H722.064L1076.62 883.148V1572.05ZM1112.66 742.277C720.105 742.277 401.844 1060.5 401.844 1453.1C401.844 1845.69 720.068 2163.92 1112.66 2163.92C1505.26 2163.92 1823.49 1845.69 1823.49 1453.1C1823.49 1060.5 1505.26 742.277 1112.66 742.277V742.277Z" stroke="#2FB41F" stroke-width="2.68694" stroke-miterlimit="10"/>
<path d="M1157.31 2034.62V1317.4H1526.47L1157.31 2034.62ZM1082.24 1565.06H713.077L1082.24 847.848V1565.06ZM1119.76 701.174C711.044 701.174 379.734 1032.48 379.734 1441.2C379.734 1849.91 711.044 2181.22 1119.76 2181.22C1528.47 2181.22 1859.78 1849.91 1859.78 1441.2C1859.78 1032.48 1528.47 701.174 1119.76 701.174V701.174Z" stroke="#2FB41F" stroke-width="2.79441" stroke-miterlimit="10"/>
<path d="M1165.85 2046.22V1300.66H1549.58L1165.85 2046.22ZM1087.82 1558.11H704.096L1087.82 812.546V1558.11ZM1126.86 660.105C702.026 660.105 357.594 1004.5 357.594 1429.37C357.594 1854.23 701.989 2198.63 1126.86 2198.63C1551.72 2198.63 1896.12 1854.23 1896.12 1429.37C1896.12 1004.5 1551.72 660.105 1126.86 660.105V660.105Z" stroke="#2FB41F" stroke-width="2.90189" stroke-miterlimit="10"/>
<path d="M1174.42 2057.83V1283.95H1572.71L1174.42 2057.83ZM1093.43 1551.2H695.146L1093.43 777.32V1551.2ZM1133.95 619.076C692.965 619.076 335.484 976.557 335.484 1417.54C335.484 1858.52 692.965 2216 1133.95 2216C1574.93 2216 1932.41 1858.52 1932.41 1417.54C1932.41 976.557 1574.93 619.076 1133.95 619.076V619.076Z" stroke="#2FB41F" stroke-width="3.00937" stroke-miterlimit="10"/>
<path d="M1182.97 2069.44V1267.24H1595.86L1182.97 2069.44ZM1099.02 1544.25H686.133L1099.02 742.055V1544.25ZM1141.01 578.008C683.878 578.008 313.312 948.574 313.312 1405.71C313.312 1862.85 683.878 2233.41 1141.01 2233.41C1598.15 2233.41 1968.72 1862.85 1968.72 1405.71C1968.72 948.574 1598.15 578.008 1141.01 578.008V578.008Z" stroke="#2FB41F" stroke-width="3.11685" stroke-miterlimit="10"/>
<path d="M1191.5 2081.01V1250.5H1618.96L1191.5 2081.01ZM1104.56 1537.3H677.111L1104.56 706.792V1537.3ZM1148.03 536.941C674.782 536.941 291.094 920.593 291.094 1393.88C291.094 1867.17 674.745 2250.82 1148.03 2250.82C1621.32 2250.82 2004.97 1867.17 2004.97 1393.88C2004.97 920.593 1621.32 536.941 1148.03 536.941V536.941Z" stroke="#2FB41F" stroke-width="3.22432" stroke-miterlimit="10"/>
<path d="M1200.07 2092.61V1233.79H1642.09L1200.07 2092.61ZM1110.18 1530.35H668.16L1110.18 671.49V1530.35ZM1155.13 495.873C665.721 495.873 268.984 892.61 268.984 1382.02C268.984 1871.42 665.721 2268.16 1155.13 2268.16C1644.53 2268.16 2041.27 1871.42 2041.27 1382.02C2041.27 892.61 1644.53 495.873 1155.13 495.873V495.873Z" stroke="#2FB41F" stroke-width="3.3318" stroke-miterlimit="10"/>
<path d="M1208.62 2104.22V1217.04H1665.24L1208.62 2104.22ZM1115.77 1523.4H659.148L1115.77 636.227V1523.4ZM1162.19 454.807C656.634 454.807 246.812 864.628 246.812 1370.19C246.812 1875.75 656.634 2285.57 1162.19 2285.57C1667.75 2285.57 2077.57 1875.75 2077.57 1370.19C2077.57 864.628 1667.75 454.807 1162.19 454.807V454.807Z" stroke="#2FB41F" stroke-width="3.43928" stroke-miterlimit="10"/>
<path d="M1217.19 2115.83V1200.34H1688.37L1217.19 2115.83V2115.83ZM1121.38 1516.49H650.198L1121.38 601.001V1516.49ZM1169.29 413.777C647.61 413.777 224.703 836.684 224.703 1358.36C224.703 1880.04 647.61 2302.94 1169.29 2302.94C1690.96 2302.94 2113.87 1880.04 2113.87 1358.36C2113.87 836.684 1690.96 413.777 1169.29 413.777V413.777Z" stroke="#2FB41F" stroke-width="3.54676" stroke-miterlimit="10"/>
<path d="M1225.74 2127.4V1183.59H1711.52L1225.74 2127.4ZM1126.97 1509.51H641.185L1126.97 565.701V1509.51ZM1176.35 372.674C638.524 372.674 202.531 808.666 202.531 1346.49C202.531 1884.32 638.524 2320.32 1176.35 2320.32C1714.18 2320.32 2150.17 1884.32 2150.17 1346.49C2150.17 808.666 1714.18 372.711 1176.35 372.711V372.674Z" stroke="#2FB41F" stroke-width="3.65424" stroke-miterlimit="10"/>
<path d="M1234.31 2139.01V1166.88H1734.66L1234.31 2139.01V2139.01ZM1132.55 1502.56H632.204L1132.55 530.436V1502.59V1502.56ZM1183.41 331.605C629.431 331.605 180.391 780.683 180.391 1334.63C180.391 1888.57 629.468 2337.65 1183.41 2337.65C1737.36 2337.65 2186.44 1888.57 2186.44 1334.63C2186.44 780.683 1737.4 331.642 1183.41 331.642V331.605Z" stroke="#2FB41F" stroke-width="3.76171" stroke-miterlimit="10"/>
<path d="M1242.84 2150.61V1150.14H1757.75L1242.84 2150.61ZM1138.12 1495.64H623.212L1138.12 495.171V1495.64V1495.64ZM1190.46 290.574C620.366 290.574 158.203 752.737 158.203 1322.84C158.203 1892.93 620.366 2355.1 1190.46 2355.1C1760.56 2355.1 2222.73 1892.93 2222.73 1322.84C2222.73 752.737 1760.6 290.574 1190.5 290.574H1190.46Z" stroke="#2FB41F" stroke-width="3.86919" stroke-miterlimit="10"/>
<path d="M1251.38 2162.22V1133.43H1780.89L1251.38 2162.22ZM1143.71 1488.69H614.231L1143.71 459.908V1488.69ZM1197.56 249.545C611.311 249.545 136.062 724.793 136.062 1311.04C136.062 1897.3 611.311 2372.54 1197.56 2372.54C1783.81 2372.54 2259.06 1897.3 2259.06 1311.04C2259.06 724.793 1783.81 249.508 1197.56 249.508V249.545Z" stroke="#2FB41F" stroke-width="3.97667" stroke-miterlimit="10"/>
<path d="M1259.96 2173.79V1116.69H1804.03L1259.96 2173.79ZM1149.33 1481.75H605.213L1149.33 424.645V1481.75ZM1204.66 208.479C602.255 208.479 113.922 696.775 113.922 1299.18C113.922 1901.59 602.255 2389.88 1204.62 2389.88C1806.99 2389.88 2295.33 1901.55 2295.33 1299.18C2295.33 696.812 1807.03 208.479 1204.62 208.479H1204.66Z" stroke="#2FB41F" stroke-width="4.08414" stroke-miterlimit="10"/>
<path d="M1268.5 2185.39V1099.98H1827.14L1268.5 2185.39ZM1154.91 1474.8H596.231L1154.91 389.38V1474.8ZM1211.72 167.41C593.163 167.41 91.7812 668.829 91.7812 1287.35C91.7812 1905.87 593.2 2407.29 1211.72 2407.29C1830.24 2407.29 2331.66 1905.87 2331.66 1287.35C2331.66 668.829 1830.24 167.41 1211.72 167.41V167.41Z" stroke="#2FB41F" stroke-width="4.19162" stroke-miterlimit="10"/>
<path d="M1277.08 2197V1083.24H1850.32L1277.08 2197ZM1160.5 1467.85H587.256L1160.5 354.117V1467.85ZM1218.79 126.344C584.114 126.344 69.6094 640.848 69.6094 1275.49C69.6094 1910.12 584.114 2424.63 1218.75 2424.63C1853.39 2424.63 2367.89 1910.12 2367.89 1275.49C2367.89 640.848 1853.43 126.344 1218.79 126.344V126.344Z" stroke="#2FB41F" stroke-width="4.27223" stroke-miterlimit="10"/>
<path d="M1285.62 2208.61V1066.53H1873.43L1285.62 2208.61V2208.61ZM1166.08 1460.94H578.274L1166.08 318.854V1460.9V1460.94ZM1225.85 85.2773C575.058 85.2773 47.4688 612.867 47.4688 1263.66C47.4688 1914.45 575.058 2442.04 1225.85 2442.04C1876.64 2442.04 2404.23 1914.45 2404.23 1263.66C2404.23 612.867 1876.64 85.2773 1225.85 85.2773Z" stroke="#2FB41F" stroke-width="4.37971" stroke-miterlimit="10"/>
<path d="M1294.2 2220.18V1049.82H1896.6L1294.2 2220.22V2220.18ZM1171.7 1453.95H569.293L1171.66 283.552V1453.95H1171.7ZM1232.91 44.209C566.003 44.209 25.3281 584.884 25.3281 1251.83C25.3281 1918.77 566.003 2459.45 1232.95 2459.45C1899.89 2459.45 2440.57 1918.77 2440.57 1251.83C2440.57 584.884 1899.86 44.209 1232.91 44.209Z" stroke="#2FB41F" stroke-width="4.48719" stroke-miterlimit="10"/>
<path d="M1302.72 2231.79V1033.08H1919.69L1302.72 2231.79V2231.79ZM1177.26 1447H560.296L1177.26 248.289V1447.04V1447ZM1239.99 3.17969C556.895 3.17969 3.17188 556.903 3.17188 1240C3.17188 1923.1 556.932 2476.82 1239.99 2476.82C1923.05 2476.82 2476.81 1923.06 2476.81 1240C2476.81 556.94 1923.05 3.17969 1239.99 3.17969Z" stroke="#2FB41F" stroke-width="4.59466" stroke-miterlimit="10"/>
</svg>
