<svg width="962" height="261" viewBox="0 0 962 261" fill="none" xmlns="http://www.w3.org/2000/svg">
<g clip-path="url(#clip0_3784_6764)">
<path d="M130.707 261C202.894 261 261.413 202.573 261.413 130.5C261.413 58.4268 202.894 0 130.707 0C58.5193 0 0 58.4268 0 130.5C0 202.573 58.5193 261 130.707 261Z" fill="white"/>
<path fill-rule="evenodd" clip-rule="evenodd" d="M125.229 25.9006V152.167H60.125L125.229 25.9006ZM138.45 235.099V108.584H203.803L138.45 235.099Z" fill="#069E08"/>
<path d="M337.286 216.67C333.546 210.942 330.056 205.214 326.566 199.734C345.014 188.527 351.246 179.562 351.246 162.627V64.7517H329.558V46.0732H375.676V157.646C375.676 186.037 367.45 201.976 337.286 216.67Z" fill="white"/>
<path d="M530.484 149.925C530.484 159.389 537.215 160.385 541.702 160.385C546.189 160.385 552.671 158.891 557.656 157.397V174.83C550.676 177.071 543.447 178.815 533.476 178.815C521.51 178.815 507.55 174.332 507.55 153.412V102.109H494.836V84.4264H507.55V58.2766H530.484V84.4264H559.401V102.109H530.484V149.925Z" fill="white"/>
<path d="M578.347 225.386V84.1772H600.284V92.6448C609.01 85.9205 618.732 81.6868 630.698 81.6868C651.388 81.6868 667.841 96.1314 667.841 127.262C667.841 158.144 649.893 178.566 620.227 178.566C612.998 178.566 607.264 177.569 601.282 176.324V225.137H578.347V225.386ZM624.715 100.614C617.984 100.614 609.508 103.852 601.531 110.825V158.891C606.517 159.887 611.752 160.634 618.732 160.634C634.935 160.634 644.159 150.423 644.159 129.005C644.159 109.331 637.428 100.614 624.715 100.614Z" fill="white"/>
<path d="M758.083 176.573H736.645V166.362H736.146C728.667 172.09 719.444 178.317 705.733 178.317C693.767 178.317 680.804 169.6 680.804 151.918C680.804 128.258 700.996 123.776 715.206 121.783L735.398 119.044V116.304C735.398 103.852 730.412 99.8671 718.696 99.8671C712.962 99.8671 699.501 101.61 688.532 106.093L686.538 87.6639C696.509 84.1772 710.22 81.6868 721.687 81.6868C744.123 81.6868 758.582 90.6524 758.582 117.3V176.573H758.083ZM735.149 133.488L716.203 136.477C710.469 137.224 704.486 140.711 704.486 149.178C704.486 156.65 708.724 160.883 714.957 160.883C721.687 160.883 728.917 156.899 735.149 152.416V133.488Z" fill="white"/>
<path d="M852.812 173.585C843.339 176.822 834.864 178.815 824.144 178.815C789.743 178.815 776.032 159.14 776.032 130.5C776.032 100.365 794.978 81.6868 825.64 81.6868C837.107 81.6868 844.087 83.6791 851.815 86.1696V105.595C845.084 103.105 835.362 100.365 825.889 100.365C811.929 100.365 799.963 107.837 799.963 129.255C799.963 152.914 811.929 160.136 827.136 160.136C834.365 160.136 842.342 158.642 853.062 154.408V173.585H852.812Z" fill="white"/>
<path d="M896.188 124.025C898.182 121.783 899.678 119.542 928.595 84.4263H958.51L921.117 128.258L962 176.822H932.085L896.437 132.99V176.822H873.503V46.0732H896.437V124.025H896.188Z" fill="white"/>
<path d="M477.635 173.585C465.669 177.32 455.448 178.815 443.483 178.815C414.067 178.815 395.869 164.121 395.869 129.753C395.869 104.599 411.324 81.6868 440.99 81.6868C470.406 81.6868 480.626 102.109 480.626 121.534C480.626 128.009 480.128 131.496 479.878 135.232H420.548C421.047 155.404 432.514 160.136 449.715 160.136C459.188 160.136 467.663 157.895 477.386 154.408V173.585H477.635ZM456.695 120.04C456.695 108.833 452.955 99.12 440.74 99.12C429.273 99.12 422.293 107.338 420.797 120.04H456.695Z" fill="white"/>
</g>
<defs>
<clipPath id="clip0_3784_6764">
<rect width="962" height="261" fill="white"/>
</clipPath>
</defs>
</svg>
