<svg width="1080" height="387" viewBox="0 0 1080 387" fill="none" xmlns="http://www.w3.org/2000/svg">
<mask id="mask0_3975_1973" style="mask-type:luminance" maskUnits="userSpaceOnUse" x="64" y="64" width="952" height="259">
<path d="M1015.31 64.2148H64.3066V322.415H1015.31V64.2148Z" fill="white"/>
</mask>
<g mask="url(#mask0_3975_1973)">
<path fill-rule="evenodd" clip-rule="evenodd" d="M193.407 322.415C264.707 322.415 322.507 264.615 322.507 193.315C322.507 122.015 264.707 64.2148 193.407 64.2148C122.107 64.2148 64.3066 122.015 64.3066 193.315C64.3066 264.615 122.107 322.415 193.407 322.415ZM199.954 171.716V296.838L264.353 171.716H199.954ZM186.859 89.8027V214.925H122.46L186.859 89.8027Z" fill="white"/>
<path d="M397.653 278.673C394.001 273.09 390.524 267.309 387.058 261.913C405.364 250.933 411.342 241.873 411.342 225.113V128.381H389.965V109.889H435.627V220.298C435.616 248.421 427.718 264.03 397.653 278.673Z" fill="white"/>
<path d="M588.849 212.586C588.849 221.89 595.595 222.984 600.026 222.984C604.457 222.984 610.912 221.449 615.727 220.099V237.441C608.006 240.076 599.892 241.379 591.733 241.29C579.789 241.29 566.146 236.859 566.146 216.25V165.4H553.562V147.838H566.088V121.832H588.849V147.652H617.46V165.4H588.849V212.586Z" fill="white"/>
<path d="M636.209 287.337V147.525H657.982V155.934C666.646 149.188 676.277 145.141 688.035 145.141C708.459 145.141 724.648 159.4 724.648 190.233C724.648 220.868 706.923 241.105 677.626 241.105C671.339 241.034 665.077 240.326 658.935 238.988V287.337H636.209ZM681.894 163.831C675.148 163.831 666.867 166.913 658.959 173.857V221.449C664.537 222.604 670.219 223.184 675.916 223.182C691.92 223.182 701.166 212.97 701.166 191.965C701.143 172.31 694.583 163.831 681.894 163.831Z" fill="white"/>
<path d="M813.855 238.988H792.664V228.963H792.083C784.569 234.778 775.521 240.721 762.029 240.721C750.084 240.721 737.36 232.045 737.36 214.703C737.36 191.326 757.4 186.929 771.275 184.999L791.129 182.3V179.637C791.129 167.309 786.116 163.261 774.555 163.261C764.334 163.674 754.248 165.756 744.699 169.425L742.769 151.119C753.946 147.326 765.648 145.309 777.451 145.141C799.619 145.141 813.867 154.003 813.867 180.405L813.855 238.988ZM791.129 196.373L772.438 199.258C766.844 200.026 760.877 203.398 760.877 211.877C760.877 219.344 765.111 223.508 771.275 223.508C777.823 223.508 785.151 219.46 791.129 215.227V196.373Z" fill="white"/>
<path d="M907.412 236.092C898.108 239.174 889.78 241.291 878.987 241.291C844.886 241.291 831.395 221.833 831.395 193.512C831.395 163.645 850.085 145.141 880.336 145.141C891.711 145.141 898.55 147.071 906.249 149.572V168.89C899.701 166.39 889.966 163.691 880.72 163.691C866.856 163.691 855.133 171.007 855.133 192.396C855.133 215.901 866.891 222.845 881.883 222.845C889.013 222.845 897.003 221.298 907.412 217.251V236.092Z" fill="white"/>
<path d="M950.375 186.953C952.305 184.837 953.864 182.522 982.359 147.653H1011.84L974.846 190.989L1015.31 238.977H985.639L950.375 195.641V239.001H927.637V109.9H950.375V186.953Z" fill="white"/>
<path d="M536.511 236.092C525.609 239.582 514.228 241.336 502.782 241.291C473.705 241.291 455.806 226.846 455.806 192.733C455.806 167.879 471.03 145.141 500.316 145.141C529.393 145.141 539.628 165.378 539.628 184.685C539.649 189.19 539.389 193.691 538.848 198.165H480.265C480.846 218.204 492.186 222.833 509.132 222.833C518.437 222.833 526.985 220.728 536.534 217.227L536.511 236.092ZM515.89 183.103C515.89 171.926 512.226 162.296 500.084 162.296C488.72 162.296 481.789 170.437 480.439 183.103H515.89Z" fill="white"/>
</g>
</svg>
